<svg xmlns="http://www.w3.org/2000/svg" fill="none" viewBox="-0.835 -0.835 40 40" height="40" width="40" id="Weather-App-Sun-Cloud-Location--Streamline-Ultimate.svg"><desc>Weather App Sun Cloud Location Streamline Icon: https://streamlinehq.com</desc><path fill="#fff9bf" d="M11.978125 18.366458333333334a6.388333333333334 6.388333333333334 0 1 0 0 -12.776666666666667 6.388333333333334 6.388333333333334 0 0 0 0 12.776666666666667Z" stroke-width="1.67"></path><path fill="#ffef5e" d="M7.186875000000001 16.157692083333334a6.36757125 6.36757125 0 0 0 10.828225000000002 -2.0410725000000003 6.36278 6.36278 0 0 0 -2.1384945833333333 -7.166112916666667 7.6180875 7.6180875 0 0 0 -3.2931858333333333 5.616942083333334A6.918565 6.918565 0 0 0 7.186875000000001 16.157692083333334Z" stroke-width="1.67"></path><path stroke="#191919" stroke-linecap="round" stroke-linejoin="round" d="m4.0725625 4.0725625 1.1291379166666666 1.1291379166666666" stroke-width="1.67"></path><path stroke="#191919" stroke-linecap="round" stroke-linejoin="round" d="M0.7985416666666667 11.978125h1.5970833333333334" stroke-width="1.67"></path><path stroke="#191919" stroke-linecap="round" stroke-linejoin="round" d="m4.0725625 19.8836875 1.1291379166666666 -1.1291379166666666" stroke-width="1.67"></path><path stroke="#191919" stroke-linecap="round" stroke-linejoin="round" d="M6.988836666666668 15.970833333333335A6.388333333333334 6.388333333333334 0 0 1 15.970833333333335 6.993627916666666" stroke-width="1.67"></path><path stroke="#191919" stroke-linecap="round" stroke-linejoin="round" d="M11.978125 0.7985416666666667v1.5970833333333334" stroke-width="1.67"></path><path stroke="#191919" stroke-linecap="round" stroke-linejoin="round" d="m18.754549583333336 5.201700416666667 1.1291379166666666 -1.1291379166666666" stroke-width="1.67"></path><path fill="#ffffff" d="M34.12487958333334 19.35984416666667A4.165193333333334 4.165193333333334 0 0 0 29.788798333333336 13.575208333333334a7.630864166666666 7.630864166666666 0 0 0 -14.726705416666668 2.0762083333333337 6.963283333333334 6.963283333333334 0 0 0 0.6611925 13.894625h15.276102083333333a5.580209166666667 5.580209166666667 0 0 0 3.1254920833333335 -10.1861975Z" stroke-width="1.67"></path><path fill="#e3e3e3" d="M30.9993875 24.960815416666666H15.723285416666668a6.9313416666666665 6.9313416666666665 0 0 1 -6.530473750000001 -4.687439583333334A6.9169679166666675 6.9169679166666675 0 0 0 15.723285416666668 29.546041666666667h15.276102083333333a5.511534583333334 5.511534583333334 0 0 0 5.037200833333333 -7.844873333333333 5.549864583333334 5.549864583333334 0 0 1 -5.037200833333333 3.2596470833333333Z" stroke-width="1.67"></path><path fill="#ff808c" stroke="#191919" stroke-linecap="round" stroke-linejoin="round" d="M37.53145833333333 27.845147916666665a4.574046666666667 4.574046666666667 0 0 0 -4.79125 -4.687439583333334 4.574046666666667 4.574046666666667 0 0 0 -4.79125 4.687439583333334c0 3.3171420833333336 2.7374008333333335 7.63246125 4.79125 9.686310416666668 2.0538491666666667 -2.0538491666666667 4.79125 -5.8165775 4.79125 -9.686310416666668Z" stroke-width="1.67"></path><path fill="#ffffff" stroke="#191919" stroke-linecap="round" stroke-linejoin="round" d="M32.740208333333335 29.546041666666667a1.5970833333333334 1.5970833333333334 0 1 0 0 -3.194166666666667 1.5970833333333334 1.5970833333333334 0 0 0 0 3.194166666666667Z" stroke-width="1.67"></path><path stroke="#191919" stroke-linecap="round" stroke-linejoin="round" d="M35.83695291666667 21.23002875a5.5402820833333335 5.5402820833333335 0 0 0 -1.7120733333333336 -1.8701845833333335A4.165193333333334 4.165193333333334 0 0 0 29.788798333333336 13.575208333333334a7.630864166666666 7.630864166666666 0 0 0 -14.726705416666668 2.0762083333333337 6.963283333333334 6.963283333333334 0 0 0 0.6611925 13.894625h8.031732083333333" stroke-width="1.67"></path></svg>