<svg xmlns="http://www.w3.org/2000/svg" fill="none" viewBox="0 0 24 24" height="24" width="24" id="Weather-Night-Rain--Streamline-Ultimate.svg"><desc>Weather Night Rain Streamline Icon: https://streamlinehq.com</desc><path fill="#fff9bf" d="M20.957 12.13a5.784 5.784 0 0 0 2.493 -0.563 5.777 5.777 0 0 1 0 -10.439 5.739 5.739 0 0 0 -8.116 3.955c-0.602 3.042 1.649 7.04 5.623 7.048Z" stroke-width="1"></path><path fill="#ffef5e" d="M20.231 11.84a3.533 3.533 0 0 0 -3.676 -4.909 6.462 6.462 0 0 0 -1.194 -1.943c-0.007 0.033 -0.019 0.063 -0.025 0.1 -0.584 2.937 1.504 6.762 5.239 7.017a4.513 4.513 0 0 0 -0.344 -0.265Z" stroke-width="1"></path><path fill="#e3e3e3" d="M18.72 13.183a2.985 2.985 0 0 0 -3.104 -4.145 5.464 5.464 0 0 0 -10.547 1.493 4.986 4.986 0 0 0 0.473 9.95h10.943a3.996 3.996 0 0 0 2.239 -7.294l-0.004 -0.004Z" stroke-width="1"></path><path fill="#b2b2b2" d="M16.485 16.492H5.541a4.974 4.974 0 0 1 -4.546 -2.985 4.964 4.964 0 0 0 4.546 6.968h10.944a3.986 3.986 0 0 0 3.433 -5.996 3.961 3.961 0 0 1 -3.433 2.013Z" stroke-width="1"></path><path stroke="#191919" stroke-linecap="round" stroke-linejoin="round" d="M19.47 19.09a3.952 3.952 0 0 0 -0.744 -5.897 2.984 2.984 0 0 0 -3.107 -4.148 5.472 5.472 0 0 0 -10.553 1.493 4.958 4.958 0 0 0 -2.013 9.234" stroke-width="1"></path><path stroke="#191919" stroke-linecap="round" stroke-linejoin="round" d="M20.957 12.13a5.78 5.78 0 0 0 2.493 -0.563 5.777 5.777 0 0 1 0 -10.439 5.739 5.739 0 0 0 -8.116 3.955" stroke-width="1"></path><path stroke="#191919" stroke-linecap="round" stroke-linejoin="round" d="m2.058 23.447 4.975 -4.974" stroke-width="1"></path><path stroke="#191919" stroke-linecap="round" stroke-linejoin="round" d="m7.033 23.447 4.975 -4.974" stroke-width="1"></path><path stroke="#191919" stroke-linecap="round" stroke-linejoin="round" d="m12.008 23.447 4.975 -4.974" stroke-width="1"></path></svg>