<svg xmlns="http://www.w3.org/2000/svg" fill="none" viewBox="0 0 24 24" height="24" width="24" id="Weather-Night-Thunder-Rain--Streamline-Ultimate.svg"><desc>Weather Night Thunder Rain Streamline Icon: https://streamlinehq.com</desc><path fill="#fff9bf" d="M20.957 12.13a5.77 5.77 0 0 0 2.493 -0.563 5.777 5.777 0 0 1 0 -10.439 5.739 5.739 0 0 0 -8.116 3.955c-0.602 3.042 1.645 7.04 5.623 7.048Z" stroke-width="1"></path><path fill="#ffef5e" d="M20.231 11.84a3.532 3.532 0 0 0 -3.675 -4.909 6.482 6.482 0 0 0 -1.194 -1.943c-0.007 0.033 -0.019 0.063 -0.025 0.1 -0.582 2.94 1.506 6.765 5.24 7.022a4.33 4.33 0 0 0 -0.346 -0.27Z" stroke-width="1"></path><path fill="#e3e3e3" d="M18.72 13.183a2.985 2.985 0 0 0 -3.104 -4.145 5.463 5.463 0 0 0 -10.547 1.493 4.986 4.986 0 0 0 0.473 9.95h10.94a3.995 3.995 0 0 0 2.238 -7.294v-0.004Z" stroke-width="1"></path><path fill="#b2b2b2" d="M16.481 16.492H5.545a4.974 4.974 0 0 1 -4.546 -2.985 4.962 4.962 0 0 0 4.546 6.968H16.48a3.986 3.986 0 0 0 3.433 -5.996 3.961 3.961 0 0 1 -3.433 2.013Z" stroke-width="1"></path><path stroke="#191919" stroke-linecap="round" stroke-linejoin="round" d="M20.957 12.13a5.77 5.77 0 0 0 2.493 -0.563 5.777 5.777 0 0 1 0 -10.439 5.739 5.739 0 0 0 -8.116 3.955" stroke-width="1"></path><path stroke="#191919" stroke-linecap="round" stroke-linejoin="round" d="m12.012 23.447 4.975 -4.974" stroke-width="1"></path><path stroke="#191919" stroke-linecap="round" stroke-linejoin="round" d="m2.062 23.447 4.975 -4.974" stroke-width="1"></path><path stroke="#191919" stroke-linecap="round" stroke-linejoin="round" d="M18.965 19.6a3.98 3.98 0 0 0 -0.235 -6.407 2.986 2.986 0 0 0 -3.107 -4.148A5.472 5.472 0 0 0 5.07 10.538a4.975 4.975 0 0 0 -2.06 9.228" stroke-width="1"></path><path stroke="#191919" stroke-linecap="round" stroke-linejoin="round" d="M11.017 18.473 8.53 20.96h2.487L8.53 23.447" stroke-width="1"></path></svg>