<svg xmlns="http://www.w3.org/2000/svg" fill="none" viewBox="0 0 24 24" height="24" width="24" id="Weather-Night-Snow-Thunder--Streamline-Ultimate.svg"><desc>Weather Night Snow Thunder Streamline Icon: https://streamlinehq.com</desc><path fill="#fff9bf" d="M20.957 12.13a5.784 5.784 0 0 0 2.493 -0.563 5.777 5.777 0 0 1 0 -10.439 5.739 5.739 0 0 0 -8.116 3.955c-0.602 3.042 1.649 7.04 5.623 7.048Z" stroke-width="1"></path><path fill="#ffef5e" d="M20.231 11.84a3.533 3.533 0 0 0 -3.676 -4.909 6.462 6.462 0 0 0 -1.194 -1.943c-0.007 0.033 -0.019 0.063 -0.025 0.1 -0.584 2.937 1.504 6.762 5.239 7.017a4.513 4.513 0 0 0 -0.344 -0.265Z" stroke-width="1"></path><path fill="#e3e3e3" d="M18.72 13.183a2.984 2.984 0 0 0 -3.104 -4.145 5.464 5.464 0 0 0 -10.547 1.493 4.986 4.986 0 0 0 0.473 9.95h10.943a3.996 3.996 0 0 0 2.239 -7.294l-0.004 -0.004Z" stroke-width="1"></path><path fill="#b2b2b2" d="M16.485 16.492H5.541a4.974 4.974 0 0 1 -4.546 -2.985 4.964 4.964 0 0 0 4.546 6.968h10.944a3.986 3.986 0 0 0 3.433 -5.996 3.961 3.961 0 0 1 -3.433 2.013Z" stroke-width="1"></path><path stroke="#191919" stroke-linecap="round" stroke-linejoin="round" d="M19.47 19.09a3.952 3.952 0 0 0 -0.744 -5.897 2.984 2.984 0 0 0 -3.107 -4.148 5.472 5.472 0 0 0 -10.553 1.493 4.958 4.958 0 0 0 -2.013 9.234" stroke-width="1"></path><path stroke="#191919" stroke-linecap="round" stroke-linejoin="round" d="M5.54 19.965a0.249 0.249 0 0 1 0.25 0.249" stroke-width="1"></path><path stroke="#191919" stroke-linecap="round" stroke-linejoin="round" d="M5.292 20.214a0.249 0.249 0 0 1 0.249 -0.249" stroke-width="1"></path><path stroke="#191919" stroke-linecap="round" stroke-linejoin="round" d="M5.54 20.462a0.249 0.249 0 0 1 -0.248 -0.248" stroke-width="1"></path><path stroke="#191919" stroke-linecap="round" stroke-linejoin="round" d="M5.79 20.214a0.249 0.249 0 0 1 -0.25 0.248" stroke-width="1"></path><path stroke="#191919" stroke-linecap="round" stroke-linejoin="round" d="M7.53 18.473a0.249 0.249 0 0 1 0.25 0.248" stroke-width="1"></path><path stroke="#191919" stroke-linecap="round" stroke-linejoin="round" d="M7.282 18.721a0.249 0.249 0 0 1 0.249 -0.248" stroke-width="1"></path><path stroke="#191919" stroke-linecap="round" stroke-linejoin="round" d="M7.53 18.97a0.249 0.249 0 0 1 -0.248 -0.249" stroke-width="1"></path><path stroke="#191919" stroke-linecap="round" stroke-linejoin="round" d="M7.78 18.721a0.249 0.249 0 0 1 -0.25 0.25" stroke-width="1"></path><path stroke="#191919" stroke-linecap="round" stroke-linejoin="round" d="M7.53 21.457a0.249 0.249 0 0 1 0.25 0.25" stroke-width="1"></path><path stroke="#191919" stroke-linecap="round" stroke-linejoin="round" d="M7.282 21.706a0.249 0.249 0 0 1 0.249 -0.248" stroke-width="1"></path><path stroke="#191919" stroke-linecap="round" stroke-linejoin="round" d="M7.53 21.955a0.249 0.249 0 0 1 -0.248 -0.249" stroke-width="1"></path><path stroke="#191919" stroke-linecap="round" stroke-linejoin="round" d="M7.78 21.706a0.249 0.249 0 0 1 -0.25 0.249" stroke-width="1"></path><path stroke="#191919" stroke-linecap="round" stroke-linejoin="round" d="M5.54 22.95a0.249 0.249 0 0 1 0.25 0.249" stroke-width="1"></path><path stroke="#191919" stroke-linecap="round" stroke-linejoin="round" d="M5.292 23.199a0.249 0.249 0 0 1 0.249 -0.25" stroke-width="1"></path><path stroke="#191919" stroke-linecap="round" stroke-linejoin="round" d="M5.54 23.447a0.249 0.249 0 0 1 -0.248 -0.248" stroke-width="1"></path><path stroke="#191919" stroke-linecap="round" stroke-linejoin="round" d="M5.79 23.199a0.249 0.249 0 0 1 -0.25 0.248" stroke-width="1"></path><path stroke="#191919" stroke-linecap="round" stroke-linejoin="round" d="M15.49 18.473a0.249 0.249 0 0 1 0.25 0.248" stroke-width="1"></path><path stroke="#191919" stroke-linecap="round" stroke-linejoin="round" d="M15.242 18.721a0.25 0.25 0 0 1 0.248 -0.248" stroke-width="1"></path><path stroke="#191919" stroke-linecap="round" stroke-linejoin="round" d="M15.49 18.97a0.249 0.249 0 0 1 -0.248 -0.249" stroke-width="1"></path><path stroke="#191919" stroke-linecap="round" stroke-linejoin="round" d="M15.74 18.721a0.248 0.248 0 0 1 -0.25 0.25" stroke-width="1"></path><path stroke="#191919" stroke-linecap="round" stroke-linejoin="round" d="M15.49 21.457a0.249 0.249 0 0 1 0.25 0.25" stroke-width="1"></path><path stroke="#191919" stroke-linecap="round" stroke-linejoin="round" d="M15.242 21.706a0.25 0.25 0 0 1 0.248 -0.248" stroke-width="1"></path><path stroke="#191919" stroke-linecap="round" stroke-linejoin="round" d="M15.49 21.955a0.249 0.249 0 0 1 -0.248 -0.249" stroke-width="1"></path><path stroke="#191919" stroke-linecap="round" stroke-linejoin="round" d="M15.74 21.706a0.249 0.249 0 0 1 -0.25 0.249" stroke-width="1"></path><path stroke="#191919" stroke-linecap="round" stroke-linejoin="round" d="M17.48 19.965a0.248 0.248 0 0 1 0.249 0.249" stroke-width="1"></path><path stroke="#191919" stroke-linecap="round" stroke-linejoin="round" d="M17.232 20.214a0.248 0.248 0 0 1 0.248 -0.249" stroke-width="1"></path><path stroke="#191919" stroke-linecap="round" stroke-linejoin="round" d="M17.48 20.462a0.249 0.249 0 0 1 -0.248 -0.248" stroke-width="1"></path><path stroke="#191919" stroke-linecap="round" stroke-linejoin="round" d="M17.729 20.214a0.249 0.249 0 0 1 -0.249 0.248" stroke-width="1"></path><path stroke="#191919" stroke-linecap="round" stroke-linejoin="round" d="M17.48 22.95a0.248 0.248 0 0 1 0.249 0.249" stroke-width="1"></path><path stroke="#191919" stroke-linecap="round" stroke-linejoin="round" d="M17.232 23.199a0.248 0.248 0 0 1 0.248 -0.25" stroke-width="1"></path><path stroke="#191919" stroke-linecap="round" stroke-linejoin="round" d="M17.48 23.447a0.249 0.249 0 0 1 -0.248 -0.248" stroke-width="1"></path><path stroke="#191919" stroke-linecap="round" stroke-linejoin="round" d="M17.729 23.199a0.249 0.249 0 0 1 -0.249 0.248" stroke-width="1"></path><path stroke="#191919" stroke-linecap="round" stroke-linejoin="round" d="m13.003 18.473 -2.488 2.487h2.488l-2.488 2.487" stroke-width="1"></path><path stroke="#191919" stroke-linecap="round" stroke-linejoin="round" d="M20.957 12.13a5.78 5.78 0 0 0 2.493 -0.563 5.777 5.777 0 0 1 0 -10.439 5.739 5.739 0 0 0 -8.116 3.955" stroke-width="1"></path></svg>