<svg xmlns="http://www.w3.org/2000/svg" fill="none" viewBox="0 0 24 24" height="24" width="24" id="Weather-Night-Cloudy--Streamline-Ultimate.svg"><desc>Weather Night Cloudy Streamline Icon: https://streamlinehq.com</desc><path fill="#fff9bf" d="M20.962 14.462a8.43 8.43 0 0 0 2.486 -0.66 6.957 6.957 0 0 1 0 -12.567 6.933 6.933 0 0 0 -9.922 5.769c-0.242 3.638 2.742 8.113 7.436 7.458Z" stroke-width="1"></path><path fill="#ffef5e" d="M20.962 14.462c0.317 -0.044 0.63 -0.1 0.936 -0.165a3.824 3.824 0 0 0 -0.603 -2.089 6.86 6.86 0 0 1 -0.566 -0.703 3.779 3.779 0 0 0 -3.149 -1.061 7.061 7.061 0 0 0 -3.983 -4.002c-0.027 0.187 -0.06 0.37 -0.073 0.564 -0.24 3.636 2.744 8.11 7.438 7.456Z" stroke-width="1"></path><path stroke="#191919" stroke-linecap="round" stroke-linejoin="round" d="M20.962 14.462a8.43 8.43 0 0 0 2.486 -0.66 6.957 6.957 0 0 1 0 -12.567 6.933 6.933 0 0 0 -9.922 5.769" stroke-width="1"></path><path fill="#ffffff" d="M18.715 16.156a2.984 2.984 0 0 0 -3.103 -4.144 5.462 5.462 0 0 0 -10.543 1.492 4.983 4.983 0 0 0 0.473 9.946H16.48a3.994 3.994 0 0 0 2.238 -7.29l-0.004 -0.004Z" stroke-width="1"></path><path fill="#e3e3e3" d="M16.481 19.463H5.548a4.973 4.973 0 0 1 -4.545 -2.984 4.962 4.962 0 0 0 4.538 6.966h10.94a3.985 3.985 0 0 0 3.431 -5.994 3.96 3.96 0 0 1 -3.43 2.012Z" stroke-width="1"></path><path stroke="#191919" stroke-linecap="round" stroke-linejoin="round" d="M18.715 16.156a2.984 2.984 0 0 0 -3.103 -4.144 5.462 5.462 0 0 0 -10.543 1.492 4.983 4.983 0 0 0 0.473 9.946H16.48a3.994 3.994 0 0 0 2.238 -7.29l-0.004 -0.004Z" stroke-width="1"></path></svg>