<svg xmlns="http://www.w3.org/2000/svg" fill="none" viewBox="0 0 24 24" height="24" width="24" id="Weather-Night-Thunder--Streamline-Ultimate.svg"><desc>Weather Night Thunder Streamline Icon: https://streamlinehq.com</desc><path fill="#fff9bf" d="M20.959 12.132a5.779 5.779 0 0 0 2.495 -0.563 5.78 5.78 0 0 1 0 -10.443 5.742 5.742 0 0 0 -8.12 3.956c-0.601 3.04 1.643 7.044 5.625 7.05Z" stroke-width="1"></path><path fill="#ffef5e" d="M20.235 11.841a3.534 3.534 0 0 0 -3.678 -4.913 6.479 6.479 0 0 0 -1.194 -1.942c-0.007 0.031 -0.018 0.061 -0.025 0.094 -0.582 2.942 1.507 6.768 5.243 7.026 -0.115 -0.09 -0.227 -0.183 -0.346 -0.265Z" stroke-width="1"></path><path fill="#e3e3e3" d="M18.723 13.186a2.987 2.987 0 0 0 -3.105 -4.146 5.465 5.465 0 0 0 -10.551 1.493 4.988 4.988 0 0 0 0.473 9.953h10.94a3.997 3.997 0 0 0 2.24 -7.295l0.003 -0.005Z" stroke-width="1"></path><path fill="#b2b2b2" d="M16.48 16.495H5.542a4.977 4.977 0 0 1 -4.548 -2.986 4.964 4.964 0 0 0 4.548 6.973H16.48a3.982 3.982 0 0 0 3.433 -5.999 3.961 3.961 0 0 1 -3.433 2.012Z" stroke-width="1"></path><path stroke="#191919" stroke-linecap="round" stroke-linejoin="round" d="M18.85 19.678a4.024 4.024 0 0 0 1.619 -3.194 3.98 3.98 0 0 0 -1.74 -3.285 2.986 2.986 0 0 0 -3.108 -4.15 5.474 5.474 0 0 0 -10.557 1.494A4.959 4.959 0 0 0 3.05 19.78" stroke-width="1"></path><path stroke="#191919" stroke-linecap="round" stroke-linejoin="round" d="M20.959 12.132a5.779 5.779 0 0 0 2.495 -0.563 5.78 5.78 0 0 1 0 -10.443 5.742 5.742 0 0 0 -8.12 3.956" stroke-width="1"></path><path stroke="#191919" stroke-linecap="round" stroke-linejoin="round" d="m7.024 18.473 -2.489 2.489h2.489L4.535 23.45" stroke-width="1"></path><path stroke="#191919" stroke-linecap="round" stroke-linejoin="round" d="m12 18.473 -2.488 2.489h2.489L9.512 23.45" stroke-width="1"></path><path stroke="#191919" stroke-linecap="round" stroke-linejoin="round" d="m16.977 18.473 -2.488 2.489h2.488L14.49 23.45" stroke-width="1"></path></svg>