<svg xmlns="http://www.w3.org/2000/svg" fill="none" viewBox="0 0 24 24" height="24" width="24" id="Weather-Night-Wind--Streamline-Ultimate.svg"><desc>Weather Night Wind Streamline Icon: https://streamlinehq.com</desc><path fill="#fff9bf" d="M20.953 12.124c0.863 0 1.714 -0.193 2.493 -0.564a5.775 5.775 0 0 1 0 -10.434 5.736 5.736 0 0 0 -8.113 3.953c-0.602 3.04 1.644 7.038 5.62 7.045Z" stroke-width="1"></path><path fill="#ffef5e" d="M20.228 11.833a3.53 3.53 0 0 0 -3.675 -4.907 6.48 6.48 0 0 0 -1.193 -1.942c-0.007 0.032 -0.02 0.062 -0.025 0.1 -0.582 2.939 1.505 6.762 5.238 7.019a3.207 3.207 0 0 0 -0.345 -0.27Z" stroke-width="1"></path><path fill="#ffffff" d="M18.717 13.176a2.985 2.985 0 0 0 -3.103 -4.147A5.462 5.462 0 0 0 5.072 10.52a4.984 4.984 0 0 0 0.472 9.946H16.48a3.994 3.994 0 0 0 2.237 -7.29Z" stroke-width="1"></path><path fill="#e3e3e3" d="M16.48 16.488H5.546a4.973 4.973 0 0 1 -4.544 -2.984 4.962 4.962 0 0 0 4.544 6.962H16.48a3.985 3.985 0 0 0 3.43 -5.994 3.959 3.959 0 0 1 -3.43 2.016Z" stroke-width="1"></path><path stroke="#191919" stroke-linecap="round" stroke-linejoin="round" d="M20.953 12.124c0.863 0 1.714 -0.193 2.493 -0.564a5.775 5.775 0 0 1 0 -10.434 5.736 5.736 0 0 0 -8.113 3.953" stroke-width="1"></path><path stroke="#191919" stroke-linecap="round" stroke-linejoin="round" d="M16.487 20.466a3.978 3.978 0 0 0 2.24 -7.266 2.984 2.984 0 0 0 -3.107 -4.147 5.47 5.47 0 0 0 -10.548 1.492 4.963 4.963 0 0 0 -4.079 6.938" stroke-width="1"></path><path stroke="#191919" stroke-linecap="round" stroke-linejoin="round" d="M0.573 19.472h10.94" stroke-width="1"></path><path stroke="#191919" stroke-linecap="round" stroke-linejoin="round" d="M3.557 21.46h10.94" stroke-width="1"></path><path stroke="#191919" stroke-linecap="round" stroke-linejoin="round" d="M0.573 23.45h10.94" stroke-width="1"></path></svg>