<svg xmlns="http://www.w3.org/2000/svg" fill="none" viewBox="0 0 24 24" height="24" width="24" id="Weather-Night-Clear--Streamline-Ultimate.svg"><desc>Weather Night Clear Streamline Icon: https://streamlinehq.com</desc><path fill="#ffef5e" stroke="#191919" stroke-linecap="round" stroke-linejoin="round" d="m15.75 1.75 -1.091 2.908L11.75 5.75l2.909 1.09 1.091 2.91 1.091 -2.91 2.909 -1.09 -2.909 -1.092L15.75 1.75Z" stroke-width="1"></path><path fill="#ffef5e" stroke="#191919" stroke-linecap="round" stroke-linejoin="round" d="m20.75 9.75 -0.545 1.454 -1.455 0.546 1.455 0.545 0.545 1.455 0.545 -1.455 1.455 -0.545 -1.455 -0.546 -0.545 -1.454Z" stroke-width="1"></path><path fill="#fff9bf" d="M17.75 16.25A8.5 8.5 0 0 1 9.623 5.256a8.5 8.5 0 1 0 8.253 10.987c-0.042 0.001 -0.083 0.007 -0.126 0.007Z" stroke-width="1"></path><path fill="#ffef5e" d="M13.2 18.8A8.5 8.5 0 0 1 5.71 6.28a8.5 8.5 0 1 0 11.514 11.505A8.454 8.454 0 0 1 13.2 18.8Z" stroke-width="1"></path><path stroke="#191919" stroke-linecap="round" stroke-linejoin="round" d="M17.75 16.25A8.5 8.5 0 0 1 9.623 5.256a8.5 8.5 0 1 0 8.253 10.987c-0.042 0.001 -0.083 0.007 -0.126 0.007Z" stroke-width="1"></path></svg>