<svg xmlns="http://www.w3.org/2000/svg" fill="none" viewBox="0 0 24 24" height="24" width="24" id="Weather-Cloud-Snow--Streamline-Ultimate.svg"><desc>Weather Cloud Snow Streamline Icon: https://streamlinehq.com</desc><path stroke="#191919" stroke-linecap="round" stroke-linejoin="round" d="M6.007 19.88a0.25 0.25 0 0 1 0.25 0.25" stroke-width="1"></path><path stroke="#191919" stroke-linecap="round" stroke-linejoin="round" d="M5.757 20.13a0.25 0.25 0 0 1 0.25 -0.25" stroke-width="1"></path><path stroke="#191919" stroke-linecap="round" stroke-linejoin="round" d="M6.007 20.38a0.25 0.25 0 0 1 -0.25 -0.25" stroke-width="1"></path><path stroke="#191919" stroke-linecap="round" stroke-linejoin="round" d="M6.257 20.13a0.25 0.25 0 0 1 -0.25 0.25" stroke-width="1"></path><path stroke="#191919" stroke-linecap="round" stroke-linejoin="round" d="M8.007 18.38a0.25 0.25 0 0 1 0.25 0.25" stroke-width="1"></path><path stroke="#191919" stroke-linecap="round" stroke-linejoin="round" d="M7.757 18.63a0.25 0.25 0 0 1 0.25 -0.25" stroke-width="1"></path><path stroke="#191919" stroke-linecap="round" stroke-linejoin="round" d="M8.007 18.88a0.25 0.25 0 0 1 -0.25 -0.25" stroke-width="1"></path><path stroke="#191919" stroke-linecap="round" stroke-linejoin="round" d="M8.257 18.63a0.25 0.25 0 0 1 -0.25 0.25" stroke-width="1"></path><path stroke="#191919" stroke-linecap="round" stroke-linejoin="round" d="M8.007 21.38a0.25 0.25 0 0 1 0.25 0.25" stroke-width="1"></path><path stroke="#191919" stroke-linecap="round" stroke-linejoin="round" d="M7.757 21.63a0.25 0.25 0 0 1 0.25 -0.25" stroke-width="1"></path><path stroke="#191919" stroke-linecap="round" stroke-linejoin="round" d="M8.007 21.88a0.25 0.25 0 0 1 -0.25 -0.25" stroke-width="1"></path><path stroke="#191919" stroke-linecap="round" stroke-linejoin="round" d="M8.257 21.63a0.25 0.25 0 0 1 -0.25 0.25" stroke-width="1"></path><path stroke="#191919" stroke-linecap="round" stroke-linejoin="round" d="M6.007 22.88a0.25 0.25 0 0 1 0.25 0.25" stroke-width="1"></path><path stroke="#191919" stroke-linecap="round" stroke-linejoin="round" d="M5.757 23.13a0.25 0.25 0 0 1 0.25 -0.25" stroke-width="1"></path><path stroke="#191919" stroke-linecap="round" stroke-linejoin="round" d="M6.007 23.38a0.25 0.25 0 0 1 -0.25 -0.25" stroke-width="1"></path><path stroke="#191919" stroke-linecap="round" stroke-linejoin="round" d="M6.257 23.13a0.25 0.25 0 0 1 -0.25 0.25" stroke-width="1"></path><path stroke="#191919" stroke-linecap="round" stroke-linejoin="round" d="M10.007 19.88a0.25 0.25 0 0 1 0.25 0.25" stroke-width="1"></path><path stroke="#191919" stroke-linecap="round" stroke-linejoin="round" d="M9.757 20.13a0.25 0.25 0 0 1 0.25 -0.25" stroke-width="1"></path><path stroke="#191919" stroke-linecap="round" stroke-linejoin="round" d="M10.007 20.38a0.25 0.25 0 0 1 -0.25 -0.25" stroke-width="1"></path><path stroke="#191919" stroke-linecap="round" stroke-linejoin="round" d="M10.257 20.13a0.25 0.25 0 0 1 -0.25 0.25" stroke-width="1"></path><path stroke="#191919" stroke-linecap="round" stroke-linejoin="round" d="M12.007 18.38a0.25 0.25 0 0 1 0.25 0.25" stroke-width="1"></path><path stroke="#191919" stroke-linecap="round" stroke-linejoin="round" d="M11.757 18.63a0.25 0.25 0 0 1 0.25 -0.25" stroke-width="1"></path><path stroke="#191919" stroke-linecap="round" stroke-linejoin="round" d="M12.007 18.88a0.25 0.25 0 0 1 -0.25 -0.25" stroke-width="1"></path><path stroke="#191919" stroke-linecap="round" stroke-linejoin="round" d="M12.257 18.63a0.25 0.25 0 0 1 -0.25 0.25" stroke-width="1"></path><path stroke="#191919" stroke-linecap="round" stroke-linejoin="round" d="M12.007 21.38a0.25 0.25 0 0 1 0.25 0.25" stroke-width="1"></path><path stroke="#191919" stroke-linecap="round" stroke-linejoin="round" d="M11.757 21.63a0.25 0.25 0 0 1 0.25 -0.25" stroke-width="1"></path><path stroke="#191919" stroke-linecap="round" stroke-linejoin="round" d="M12.007 21.88a0.25 0.25 0 0 1 -0.25 -0.25" stroke-width="1"></path><path stroke="#191919" stroke-linecap="round" stroke-linejoin="round" d="M12.257 21.63a0.25 0.25 0 0 1 -0.25 0.25" stroke-width="1"></path><path stroke="#191919" stroke-linecap="round" stroke-linejoin="round" d="M10.007 22.88a0.25 0.25 0 0 1 0.25 0.25" stroke-width="1"></path><path stroke="#191919" stroke-linecap="round" stroke-linejoin="round" d="M9.757 23.13a0.25 0.25 0 0 1 0.25 -0.25" stroke-width="1"></path><path stroke="#191919" stroke-linecap="round" stroke-linejoin="round" d="M10.007 23.38a0.25 0.25 0 0 1 -0.25 -0.25" stroke-width="1"></path><path stroke="#191919" stroke-linecap="round" stroke-linejoin="round" d="M10.257 23.13a0.25 0.25 0 0 1 -0.25 0.25" stroke-width="1"></path><path stroke="#191919" stroke-linecap="round" stroke-linejoin="round" d="M14.007 19.88a0.25 0.25 0 0 1 0.25 0.25" stroke-width="1"></path><path stroke="#191919" stroke-linecap="round" stroke-linejoin="round" d="M13.757 20.13a0.25 0.25 0 0 1 0.25 -0.25" stroke-width="1"></path><path stroke="#191919" stroke-linecap="round" stroke-linejoin="round" d="M14.007 20.38a0.25 0.25 0 0 1 -0.25 -0.25" stroke-width="1"></path><path stroke="#191919" stroke-linecap="round" stroke-linejoin="round" d="M14.257 20.13a0.25 0.25 0 0 1 -0.25 0.25" stroke-width="1"></path><path stroke="#191919" stroke-linecap="round" stroke-linejoin="round" d="M16.007 18.38a0.25 0.25 0 0 1 0.25 0.25" stroke-width="1"></path><path stroke="#191919" stroke-linecap="round" stroke-linejoin="round" d="M15.757 18.63a0.25 0.25 0 0 1 0.25 -0.25" stroke-width="1"></path><path stroke="#191919" stroke-linecap="round" stroke-linejoin="round" d="M16.007 18.88a0.25 0.25 0 0 1 -0.25 -0.25" stroke-width="1"></path><path stroke="#191919" stroke-linecap="round" stroke-linejoin="round" d="M16.257 18.63a0.25 0.25 0 0 1 -0.25 0.25" stroke-width="1"></path><path stroke="#191919" stroke-linecap="round" stroke-linejoin="round" d="M16.007 21.38a0.25 0.25 0 0 1 0.25 0.25" stroke-width="1"></path><path stroke="#191919" stroke-linecap="round" stroke-linejoin="round" d="M15.757 21.63a0.25 0.25 0 0 1 0.25 -0.25" stroke-width="1"></path><path stroke="#191919" stroke-linecap="round" stroke-linejoin="round" d="M16.007 21.88a0.25 0.25 0 0 1 -0.25 -0.25" stroke-width="1"></path><path stroke="#191919" stroke-linecap="round" stroke-linejoin="round" d="M16.257 21.63a0.25 0.25 0 0 1 -0.25 0.25" stroke-width="1"></path><path stroke="#191919" stroke-linecap="round" stroke-linejoin="round" d="M14.007 22.88a0.25 0.25 0 0 1 0.25 0.25" stroke-width="1"></path><path stroke="#191919" stroke-linecap="round" stroke-linejoin="round" d="M13.757 23.13a0.25 0.25 0 0 1 0.25 -0.25" stroke-width="1"></path><path stroke="#191919" stroke-linecap="round" stroke-linejoin="round" d="M14.007 23.38a0.25 0.25 0 0 1 -0.25 -0.25" stroke-width="1"></path><path stroke="#191919" stroke-linecap="round" stroke-linejoin="round" d="M14.257 23.13a0.25 0.25 0 0 1 -0.25 0.25" stroke-width="1"></path><path stroke="#191919" stroke-linecap="round" stroke-linejoin="round" d="M18.007 19.88a0.25 0.25 0 0 1 0.25 0.25" stroke-width="1"></path><path stroke="#191919" stroke-linecap="round" stroke-linejoin="round" d="M17.757 20.13a0.25 0.25 0 0 1 0.25 -0.25" stroke-width="1"></path><path stroke="#191919" stroke-linecap="round" stroke-linejoin="round" d="M18.007 20.38a0.25 0.25 0 0 1 -0.25 -0.25" stroke-width="1"></path><path stroke="#191919" stroke-linecap="round" stroke-linejoin="round" d="M18.257 20.13a0.25 0.25 0 0 1 -0.25 0.25" stroke-width="1"></path><path stroke="#191919" stroke-linecap="round" stroke-linejoin="round" d="M18.007 22.88a0.25 0.25 0 0 1 0.25 0.25" stroke-width="1"></path><path stroke="#191919" stroke-linecap="round" stroke-linejoin="round" d="M17.757 23.13a0.25 0.25 0 0 1 0.25 -0.25" stroke-width="1"></path><path stroke="#191919" stroke-linecap="round" stroke-linejoin="round" d="M18.007 23.38a0.25 0.25 0 0 1 -0.25 -0.25" stroke-width="1"></path><path stroke="#191919" stroke-linecap="round" stroke-linejoin="round" d="M18.257 23.13a0.25 0.25 0 0 1 -0.25 0.25" stroke-width="1"></path><path fill="#e3e3e3" d="M20.253 8.314a3.001 3.001 0 0 0 -3.12 -4.166 5.491 5.491 0 0 0 -10.6 1.5 5.011 5.011 0 0 0 0.475 10h11a4.017 4.017 0 0 0 2.25 -7.33l-0.005 -0.004Z" stroke-width="1"></path><path fill="#b2b2b2" d="M18.007 11.65h-11A5 5 0 0 1 2.44 8.642a4.988 4.988 0 0 0 4.572 7h10.996A4 4 0 0 0 21.46 9.62a3.979 3.979 0 0 1 -3.453 2.03Z" stroke-width="1"></path><path stroke="#191919" stroke-linecap="round" stroke-linejoin="round" d="M20.253 8.314a3.001 3.001 0 0 0 -3.12 -4.166 5.491 5.491 0 0 0 -10.6 1.5 5.011 5.011 0 0 0 0.475 10h11a4.017 4.017 0 0 0 2.25 -7.33l-0.005 -0.004Z" stroke-width="1"></path></svg>