<svg xmlns="http://www.w3.org/2000/svg" fill="none" viewBox="0 0 24 24" height="24" width="24" id="Weather-Cloud-Heavy-Rain--Streamline-Ultimate.svg"><desc>Weather Cloud Heavy Rain Streamline Icon: https://streamlinehq.com</desc><path stroke="#191919" stroke-linecap="round" stroke-linejoin="round" d="m1.554 23.45 4.976 -4.976" stroke-width="1"></path><path stroke="#191919" stroke-linecap="round" stroke-linejoin="round" d="m5.534 22.455 3.981 -3.98" stroke-width="1"></path><path stroke="#191919" stroke-linecap="round" stroke-linejoin="round" d="m7.525 23.45 4.976 -4.976" stroke-width="1"></path><path stroke="#191919" stroke-linecap="round" stroke-linejoin="round" d="m11.505 22.455 3.981 -3.98" stroke-width="1"></path><path stroke="#191919" stroke-linecap="round" stroke-linejoin="round" d="m13.496 23.45 4.976 -4.976" stroke-width="1"></path><path fill="#e3e3e3" d="M20.707 8.208a2.985 2.985 0 0 0 -3.105 -4.146A5.464 5.464 0 0 0 7.053 5.555a4.986 4.986 0 0 0 0.473 9.952h10.939a3.996 3.996 0 0 0 2.239 -7.295l0.003 -0.004Z" stroke-width="1"></path><path fill="#b2b2b2" d="M18.472 11.527H7.525a4.976 4.976 0 0 1 -4.546 -2.993 4.964 4.964 0 0 0 4.55 6.966h10.939a3.986 3.986 0 0 0 3.436 -5.993 3.96 3.96 0 0 1 -3.432 2.02Z" stroke-width="1"></path><path stroke="#191919" stroke-linecap="round" stroke-linejoin="round" d="M20.707 8.208a2.985 2.985 0 0 0 -3.105 -4.146A5.464 5.464 0 0 0 7.053 5.555a4.986 4.986 0 0 0 0.473 9.952h10.939a3.996 3.996 0 0 0 2.239 -7.295l0.003 -0.004Z" stroke-width="1"></path></svg>