<svg xmlns="http://www.w3.org/2000/svg" fill="none" viewBox="0 0 24 24" height="24" width="24" id="Weather-Cloud-Thunder--Streamline-Ultimate.svg"><desc>Weather Cloud Thunder Streamline Icon: https://streamlinehq.com</desc><path fill="#ffffff" d="M18 15.5a4 4 0 0 0 2.251 -7.306 3 3 0 0 0 -3.123 -4.169 5.5 5.5 0 0 0 -10.6 1.5A5 5 0 0 0 7 15.5h11Z" stroke-width="1"></path><path fill="#e3e3e3" d="M18 11.985H7a4.987 4.987 0 0 1 -4.67 -3.257A4.988 4.988 0 0 0 7 15.5h11a3.99 3.99 0 0 0 3.582 -5.767A3.986 3.986 0 0 1 18 11.985Z" stroke-width="1"></path><path stroke="#191919" stroke-linecap="round" stroke-linejoin="round" d="M18 15.5a4 4 0 0 0 2.251 -7.306 3 3 0 0 0 -3.123 -4.169 5.5 5.5 0 0 0 -10.6 1.5A5 5 0 0 0 7 15.5" stroke-width="1"></path><path fill="#ffef5e" d="m9.5 23.5 2 -7H9.663a0.5 0.5 0 0 1 -0.481 -0.637l1.714 -6a0.5 0.5 0 0 1 0.481 -0.363h3.74a0.5 0.5 0 0 1 0.429 0.757L13 14.5h2.022a0.5 0.5 0 0 1 0.4 0.793L9.5 23.5Z" stroke-width="1"></path><path fill="#fff9bf" d="M15.546 10.257a0.5 0.5 0 0 0 -0.429 -0.757h-3.74a0.5 0.5 0 0 0 -0.481 0.363l-1.714 6a0.5 0.5 0 0 0 0.481 0.637h1.367l2 -2H13l2.546 -4.243Z" stroke-width="1"></path><path stroke="#191919" stroke-linecap="round" stroke-linejoin="round" d="m9.5 23.5 2 -7H9.663a0.5 0.5 0 0 1 -0.481 -0.637l1.714 -6a0.5 0.5 0 0 1 0.481 -0.363h3.74a0.5 0.5 0 0 1 0.429 0.757L13 14.5h2.022a0.5 0.5 0 0 1 0.4 0.793L9.5 23.5Z" stroke-width="1"></path></svg>