<svg xmlns="http://www.w3.org/2000/svg" fill="none" viewBox="0 0 24 24" height="24" width="24" id="Weather-Cloud-Wind-2--Streamline-Ultimate.svg"><desc>Weather Cloud Wind 2 Streamline Icon: https://streamlinehq.com</desc><path fill="#ffffff" d="M18.5 17a4 4 0 0 0 2.251 -7.306 3 3 0 0 0 -3.123 -4.169 5.5 5.5 0 0 0 -10.6 1.5A5 5 0 0 0 7.5 17h11Z" stroke-width="1"></path><path fill="#e3e3e3" d="M18.5 13.485h-11a4.987 4.987 0 0 1 -4.67 -3.257A4.988 4.988 0 0 0 7.5 17h11a3.989 3.989 0 0 0 3.582 -5.767 3.986 3.986 0 0 1 -3.582 2.252Z" stroke-width="1"></path><path stroke="#191919" stroke-linecap="round" stroke-linejoin="round" d="M15.5 17h3a4 4 0 0 0 2.251 -7.306 3 3 0 0 0 -3.123 -4.169 5.5 5.5 0 0 0 -10.6 1.5A5 5 0 0 0 2.5 12c0.001 0.69 0.149 1.371 0.432 2" stroke-width="1"></path><path stroke="#191919" stroke-linecap="round" stroke-linejoin="round" d="M1.5 16h9" stroke-width="1"></path><path stroke="#191919" stroke-linecap="round" stroke-linejoin="round" d="M4.5 19h9" stroke-width="1"></path><path stroke="#191919" stroke-linecap="round" stroke-linejoin="round" d="M1.5 22h9" stroke-width="1"></path></svg>