<svg xmlns="http://www.w3.org/2000/svg" fill="none" viewBox="0 0 24 24" height="24" width="24" id="Weather-Cloud--Streamline-Ultimate.svg"><desc>Weather Cloud Streamline Icon: https://streamlinehq.com</desc><path fill="#fff9bf" d="M9.5 15.5a6 6 0 1 0 0 -12 6 6 0 0 0 0 12Z" stroke-width="1"></path><path stroke="#191919" stroke-linecap="round" stroke-linejoin="round" d="M9.5 0.5v1" stroke-width="1"></path><path stroke="#191919" stroke-linecap="round" stroke-linejoin="round" d="m2.5 2.5 1 1" stroke-width="1"></path><path stroke="#191919" stroke-linecap="round" stroke-linejoin="round" d="m16.5 2.5 -1 1" stroke-width="1"></path><path stroke="#191919" stroke-linecap="round" stroke-linejoin="round" d="M0.5 9.5h1" stroke-width="1"></path><path fill="#ffef5e" d="M9.5 15.5a6 6 0 0 0 5.3 -8.813A5.477 5.477 0 0 0 7.023 11.2a4.95 4.95 0 0 0 -2.773 1.2 6 6 0 0 0 5.25 3.1Z" stroke-width="1"></path><path stroke="#191919" stroke-linecap="round" stroke-linejoin="round" d="M14.7 6.507A6 6 0 0 0 3.5 9.5c0 1.052 0.28 2.086 0.812 2.994" stroke-width="1"></path><path fill="#ffffff" d="M21.751 16.165A3 3 0 0 0 18.629 12a5.5 5.5 0 0 0 -10.605 1.5 5.015 5.015 0 0 0 0.476 10h11a4.019 4.019 0 0 0 2.251 -7.335Z" stroke-width="1"></path><path fill="#e3e3e3" d="M19.5 19.806h-11a5 5 0 0 1 -4.642 -3.179A5.013 5.013 0 0 0 8.5 23.5h11a4.012 4.012 0 0 0 3.54 -5.879 3.986 3.986 0 0 1 -3.54 2.185Z" stroke-width="1"></path><path stroke="#191919" stroke-linecap="round" stroke-linejoin="round" d="M21.751 16.165A3 3 0 0 0 18.629 12a5.5 5.5 0 0 0 -10.605 1.5 5.015 5.015 0 0 0 0.476 10h11a4.019 4.019 0 0 0 2.251 -7.335v0Z" stroke-width="1"></path></svg>