<svg xmlns="http://www.w3.org/2000/svg" fill="none" viewBox="0 0 24 24" height="24" width="24" id="Weather-Clouds--Streamline-Ultimate.svg"><desc>Weather Clouds Streamline Icon: https://streamlinehq.com</desc><path fill="#e3e3e3" d="M21.701 8.2a2.984 2.984 0 0 0 -3.103 -4.144A5.462 5.462 0 0 0 8.056 5.548a4.984 4.984 0 0 0 0.472 9.946h10.94a3.994 3.994 0 0 0 2.237 -7.29l-0.004 -0.004Z" stroke-width="1"></path><path fill="#b2b2b2" d="M21.799 14.713a3.996 3.996 0 0 0 -4.449 -4.537 7.315 7.315 0 0 0 -13.785 0.35 4.98 4.98 0 0 0 4.962 4.963h10.94a3.93 3.93 0 0 0 2.332 -0.776Z" stroke-width="1"></path><path fill="#ffffff" d="M18.718 16.156a2.984 2.984 0 0 0 -3.104 -4.143 5.462 5.462 0 0 0 -10.542 1.492 4.984 4.984 0 0 0 0.473 9.945h10.939a3.994 3.994 0 0 0 2.237 -7.29l-0.003 -0.004Z" stroke-width="1"></path><path fill="#e3e3e3" d="M16.484 20.316H5.544A4.96 4.96 0 0 1 0.85 16.888a4.939 4.939 0 0 0 4.693 6.557h10.94a3.978 3.978 0 0 0 3.653 -5.552 3.978 3.978 0 0 1 -3.653 2.423Z" stroke-width="1"></path><path stroke="#191919" stroke-linecap="round" stroke-linejoin="round" d="M18.718 16.156a2.984 2.984 0 0 0 -3.104 -4.143 5.462 5.462 0 0 0 -10.542 1.492 4.984 4.984 0 0 0 0.473 9.945h10.939a3.994 3.994 0 0 0 2.237 -7.29l-0.003 -0.004Z" stroke-width="1"></path><path stroke="#191919" stroke-linecap="round" stroke-linejoin="round" d="M21.978 14.58a3.978 3.978 0 0 0 -0.27 -6.372A2.984 2.984 0 0 0 18.6 4.06 5.47 5.47 0 0 0 8.054 5.553a4.973 4.973 0 0 0 -4.5 4.95" stroke-width="1"></path></svg>