<svg xmlns="http://www.w3.org/2000/svg" fill="none" viewBox="0 0 24 24" height="24" width="24" id="Weather-Cloud-Rain--Streamline-Ultimate.svg"><desc>Weather Cloud Rain Streamline Icon: https://streamlinehq.com</desc><path stroke="#191919" stroke-linecap="round" stroke-linejoin="round" d="m2 23.25 5 -5" stroke-width="1"></path><path stroke="#191919" stroke-linecap="round" stroke-linejoin="round" d="m7 23.25 5 -5" stroke-width="1"></path><path stroke="#191919" stroke-linecap="round" stroke-linejoin="round" d="m12 23.25 5 -5" stroke-width="1"></path><path fill="#e3e3e3" d="M20.246 8.435a3 3 0 0 0 -3.12 -4.167 5.491 5.491 0 0 0 -10.6 1.5 5.011 5.011 0 0 0 0.475 10H18a4.015 4.015 0 0 0 2.25 -7.329l-0.004 -0.004Z" stroke-width="1"></path><path fill="#b2b2b2" d="M18 11.769H7a5 5 0 0 1 -4.568 -3.007 4.988 4.988 0 0 0 4.572 7H18a4 4 0 0 0 3.453 -6.022A3.978 3.978 0 0 1 18 11.769Z" stroke-width="1"></path><path stroke="#191919" stroke-linecap="round" stroke-linejoin="round" d="M20.246 8.435a3 3 0 0 0 -3.12 -4.167 5.491 5.491 0 0 0 -10.6 1.5 5.011 5.011 0 0 0 0.475 10H18a4.015 4.015 0 0 0 2.25 -7.329l-0.004 -0.004Z" stroke-width="1"></path></svg>