<svg xmlns="http://www.w3.org/2000/svg" fill="none" viewBox="0 0 24 24" height="24" width="24" id="Weather-Cloud-Hurricane--Streamline-Ultimate.svg"><desc>Weather Cloud Hurricane Streamline Icon: https://streamlinehq.com</desc><path fill="#e3e3e3" d="M16.5 15.5a4 4 0 0 0 2.251 -7.306 3 3 0 0 0 -3.123 -4.169 5.5 5.5 0 0 0 -10.6 1.5A5 5 0 0 0 5.5 15.5h11Z" stroke-width="1"></path><path fill="#b2b2b2" d="M16.5 11.75h-11A5 5 0 0 1 0.869 8.621 4.995 4.995 0 0 0 5.5 15.5h11a4 4 0 0 0 3.523 -5.893A3.983 3.983 0 0 1 16.5 11.75Z" stroke-width="1"></path><path stroke="#191919" stroke-linecap="round" stroke-linejoin="round" d="M18.818 5.973a2.99 2.99 0 0 0 -3.189 -1.948 5.5 5.5 0 0 0 -10.606 1.5A5 5 0 0 0 5.5 15.5H9" stroke-width="1"></path><path fill="#ffffff" d="M20 23.5h1c-2.5 -9.819 4.094 -7.616 0.5 -14h-11c7.735 4.181 1.5 4.721 1.5 6.841s6.818 2.744 8 7.159Z" stroke-width="1"></path><path stroke="#191919" stroke-linecap="round" stroke-linejoin="round" d="M10.5 9.5h11" stroke-width="1"></path><path stroke="#191919" stroke-linecap="round" stroke-linejoin="round" d="M12.5 11.5h10" stroke-width="1"></path><path stroke="#191919" stroke-linecap="round" stroke-linejoin="round" d="M14.5 13.5h9" stroke-width="1"></path><path stroke="#191919" stroke-linecap="round" stroke-linejoin="round" d="M11.5 15.5h10" stroke-width="1"></path><path stroke="#191919" stroke-linecap="round" stroke-linejoin="round" d="M12.5 17.5h7" stroke-width="1"></path><path stroke="#191919" stroke-linecap="round" stroke-linejoin="round" d="M15.5 19.5h6" stroke-width="1"></path><path stroke="#191919" stroke-linecap="round" stroke-linejoin="round" d="M18.5 21.5h4" stroke-width="1"></path><path stroke="#191919" stroke-linecap="round" stroke-linejoin="round" d="M20 23.5h1" stroke-width="1"></path></svg>