<svg xmlns="http://www.w3.org/2000/svg" fill="none" viewBox="0 0 24 24" height="24" width="24" id="Weather-Sun--Streamline-Ultimate.svg"><desc>Weather Sun Streamline Icon: https://streamlinehq.com</desc><path fill="#fff9bf" d="M19 12a7 7 0 0 0 -7 -7 7 7 0 0 0 -7 7 7 7 0 1 0 14 0Z" stroke-width="1"></path><path fill="#ffef5e" d="M12 15.5a7 7 0 0 1 -6.771 -5.25 7 7 0 1 0 13.542 0A7 7 0 0 1 12 15.5Z" stroke-width="1"></path><path stroke="#191919" stroke-linecap="round" stroke-linejoin="round" d="M19 12a7 7 0 0 0 -7 -7v0a7 7 0 0 0 -7 7v0a7 7 0 1 0 14 0v0Z" stroke-width="1"></path><path stroke="#191919" stroke-linecap="round" stroke-linejoin="round" d="M12 21v2" stroke-width="1"></path><path stroke="#191919" stroke-linecap="round" stroke-linejoin="round" d="M21 12h2" stroke-width="1"></path><path stroke="#191919" stroke-linecap="round" stroke-linejoin="round" d="M12 3V1" stroke-width="1"></path><path stroke="#191919" stroke-linecap="round" stroke-linejoin="round" d="M3 12H1" stroke-width="1"></path><path stroke="#191919" stroke-linecap="round" stroke-linejoin="round" d="m5.637 18.364 -1.415 1.415" stroke-width="1"></path><path stroke="#191919" stroke-linecap="round" stroke-linejoin="round" d="m18.364 18.364 1.414 1.414" stroke-width="1"></path><path stroke="#191919" stroke-linecap="round" stroke-linejoin="round" d="m18.365 5.637 1.414 -1.414" stroke-width="1"></path><path stroke="#191919" stroke-linecap="round" stroke-linejoin="round" d="M5.636 5.637 4.222 4.223" stroke-width="1"></path></svg>