<svg xmlns="http://www.w3.org/2000/svg" fill="none" viewBox="0 0 24 24" height="24" width="24" id="Weather-Snow--Streamline-Ultimate.svg"><desc>Weather Snow Streamline Icon: https://streamlinehq.com</desc><path fill="#fff9bf" d="M7.519 11.627a3.982 3.982 0 1 0 0 -7.965 3.982 3.982 0 0 0 0 7.965Z" stroke-width="1"></path><path fill="#ffef5e" d="M4.37 10.057a3.966 3.966 0 1 0 5.69 -5.455 5.475 5.475 0 0 0 -3.286 4.546 4.906 4.906 0 0 0 -2.404 0.909Z" stroke-width="1"></path><path stroke="#191919" stroke-linecap="round" stroke-linejoin="round" d="m2.266 2.391 0.773 0.774" stroke-width="1"></path><path stroke="#191919" stroke-linecap="round" stroke-linejoin="round" d="m12.77 2.391 -0.772 0.774" stroke-width="1"></path><path stroke="#191919" stroke-linecap="round" stroke-linejoin="round" d="M4.208 9.858a3.982 3.982 0 0 1 5.831 -5.3" stroke-width="1"></path><path stroke="#191919" stroke-linecap="round" stroke-linejoin="round" d="M0.55 6.65h0.996" stroke-width="1"></path><path stroke="#191919" stroke-linecap="round" stroke-linejoin="round" d="M7.519 0.676v0.996" stroke-width="1"></path><path fill="#e3e3e3" d="M21.706 13.313a2.986 2.986 0 0 0 -3.11 -4.15 5.475 5.475 0 0 0 -10.552 1.493 4.992 4.992 0 0 0 0.47 9.96h10.95a4 4 0 0 0 2.242 -7.303Z" stroke-width="1"></path><path fill="#b2b2b2" d="M19.465 17.338H8.515a4.969 4.969 0 0 1 -4.68 -3.364 4.957 4.957 0 0 0 4.68 6.641h10.95a3.981 3.981 0 0 0 3.623 -5.636 3.981 3.981 0 0 1 -3.623 2.359Z" stroke-width="1"></path><path stroke="#191919" stroke-linecap="round" stroke-linejoin="round" d="M22.451 19.242a3.981 3.981 0 0 0 -0.742 -5.929 2.987 2.987 0 0 0 -3.11 -4.15 5.476 5.476 0 0 0 -10.552 1.493 4.977 4.977 0 0 0 -2.22 9.143" stroke-width="1"></path><path stroke="#191919" stroke-linecap="round" stroke-linejoin="round" d="M8.514 19.84a0.249 0.249 0 0 1 0.249 0.248" stroke-width="1"></path><path stroke="#191919" stroke-linecap="round" stroke-linejoin="round" d="M8.265 20.088a0.249 0.249 0 0 1 0.25 -0.248" stroke-width="1"></path><path stroke="#191919" stroke-linecap="round" stroke-linejoin="round" d="M8.514 20.337a0.249 0.249 0 0 1 -0.249 -0.248" stroke-width="1"></path><path stroke="#191919" stroke-linecap="round" stroke-linejoin="round" d="M8.763 20.089a0.249 0.249 0 0 1 -0.249 0.248" stroke-width="1"></path><path stroke="#191919" stroke-linecap="round" stroke-linejoin="round" d="M10.505 18.346a0.249 0.249 0 0 1 0.249 0.25" stroke-width="1"></path><path stroke="#191919" stroke-linecap="round" stroke-linejoin="round" d="M10.256 18.595a0.249 0.249 0 0 1 0.25 -0.249" stroke-width="1"></path><path stroke="#191919" stroke-linecap="round" stroke-linejoin="round" d="M10.505 18.844a0.249 0.249 0 0 1 -0.249 -0.249" stroke-width="1"></path><path stroke="#191919" stroke-linecap="round" stroke-linejoin="round" d="M10.754 18.595a0.249 0.249 0 0 1 -0.249 0.25" stroke-width="1"></path><path stroke="#191919" stroke-linecap="round" stroke-linejoin="round" d="M10.505 21.333a0.25 0.25 0 0 1 0.249 0.249" stroke-width="1"></path><path stroke="#191919" stroke-linecap="round" stroke-linejoin="round" d="M10.256 21.582a0.249 0.249 0 0 1 0.25 -0.25" stroke-width="1"></path><path stroke="#191919" stroke-linecap="round" stroke-linejoin="round" d="M10.505 21.83a0.249 0.249 0 0 1 -0.249 -0.248" stroke-width="1"></path><path stroke="#191919" stroke-linecap="round" stroke-linejoin="round" d="M10.754 21.582a0.249 0.249 0 0 1 -0.249 0.249" stroke-width="1"></path><path stroke="#191919" stroke-linecap="round" stroke-linejoin="round" d="M8.514 22.826a0.25 0.25 0 0 1 0.249 0.25" stroke-width="1"></path><path stroke="#191919" stroke-linecap="round" stroke-linejoin="round" d="M8.265 23.075a0.249 0.249 0 0 1 0.25 -0.249" stroke-width="1"></path><path stroke="#191919" stroke-linecap="round" stroke-linejoin="round" d="M8.514 23.324a0.249 0.249 0 0 1 -0.249 -0.249" stroke-width="1"></path><path stroke="#191919" stroke-linecap="round" stroke-linejoin="round" d="M8.763 23.075a0.249 0.249 0 0 1 -0.249 0.249" stroke-width="1"></path><path stroke="#191919" stroke-linecap="round" stroke-linejoin="round" d="M12.496 19.84a0.249 0.249 0 0 1 0.249 0.248" stroke-width="1"></path><path stroke="#191919" stroke-linecap="round" stroke-linejoin="round" d="M12.247 20.088a0.248 0.248 0 0 1 0.25 -0.248" stroke-width="1"></path><path stroke="#191919" stroke-linecap="round" stroke-linejoin="round" d="M12.496 20.337a0.249 0.249 0 0 1 -0.249 -0.248" stroke-width="1"></path><path stroke="#191919" stroke-linecap="round" stroke-linejoin="round" d="M12.745 20.089a0.249 0.249 0 0 1 -0.249 0.248" stroke-width="1"></path><path stroke="#191919" stroke-linecap="round" stroke-linejoin="round" d="M14.487 18.346a0.249 0.249 0 0 1 0.25 0.25" stroke-width="1"></path><path stroke="#191919" stroke-linecap="round" stroke-linejoin="round" d="M14.238 18.595a0.249 0.249 0 0 1 0.25 -0.249" stroke-width="1"></path><path stroke="#191919" stroke-linecap="round" stroke-linejoin="round" d="M14.487 18.844a0.25 0.25 0 0 1 -0.249 -0.249" stroke-width="1"></path><path stroke="#191919" stroke-linecap="round" stroke-linejoin="round" d="M14.736 18.595a0.249 0.249 0 0 1 -0.249 0.25" stroke-width="1"></path><path stroke="#191919" stroke-linecap="round" stroke-linejoin="round" d="M14.487 21.333a0.25 0.25 0 0 1 0.25 0.249" stroke-width="1"></path><path stroke="#191919" stroke-linecap="round" stroke-linejoin="round" d="M14.238 21.582a0.249 0.249 0 0 1 0.25 -0.25" stroke-width="1"></path><path stroke="#191919" stroke-linecap="round" stroke-linejoin="round" d="M14.487 21.83a0.249 0.249 0 0 1 -0.249 -0.248" stroke-width="1"></path><path stroke="#191919" stroke-linecap="round" stroke-linejoin="round" d="M14.736 21.582a0.249 0.249 0 0 1 -0.249 0.249" stroke-width="1"></path><path stroke="#191919" stroke-linecap="round" stroke-linejoin="round" d="M12.496 22.826a0.25 0.25 0 0 1 0.249 0.25" stroke-width="1"></path><path stroke="#191919" stroke-linecap="round" stroke-linejoin="round" d="M12.247 23.075a0.249 0.249 0 0 1 0.25 -0.249" stroke-width="1"></path><path stroke="#191919" stroke-linecap="round" stroke-linejoin="round" d="M12.496 23.324a0.249 0.249 0 0 1 -0.249 -0.249" stroke-width="1"></path><path stroke="#191919" stroke-linecap="round" stroke-linejoin="round" d="M12.745 23.075a0.25 0.25 0 0 1 -0.249 0.249" stroke-width="1"></path><path stroke="#191919" stroke-linecap="round" stroke-linejoin="round" d="M16.478 19.84a0.249 0.249 0 0 1 0.25 0.248" stroke-width="1"></path><path stroke="#191919" stroke-linecap="round" stroke-linejoin="round" d="M16.23 20.088a0.249 0.249 0 0 1 0.248 -0.248" stroke-width="1"></path><path stroke="#191919" stroke-linecap="round" stroke-linejoin="round" d="M16.478 20.337a0.249 0.249 0 0 1 -0.249 -0.248" stroke-width="1"></path><path stroke="#191919" stroke-linecap="round" stroke-linejoin="round" d="M16.727 20.089a0.248 0.248 0 0 1 -0.249 0.248" stroke-width="1"></path><path stroke="#191919" stroke-linecap="round" stroke-linejoin="round" d="M18.47 18.346a0.249 0.249 0 0 1 0.248 0.25" stroke-width="1"></path><path stroke="#191919" stroke-linecap="round" stroke-linejoin="round" d="M18.22 18.595a0.249 0.249 0 0 1 0.25 -0.249" stroke-width="1"></path><path stroke="#191919" stroke-linecap="round" stroke-linejoin="round" d="M18.47 18.844a0.25 0.25 0 0 1 -0.25 -0.249" stroke-width="1"></path><path stroke="#191919" stroke-linecap="round" stroke-linejoin="round" d="M18.718 18.595a0.25 0.25 0 0 1 -0.249 0.25" stroke-width="1"></path><path stroke="#191919" stroke-linecap="round" stroke-linejoin="round" d="M18.47 21.333a0.25 0.25 0 0 1 0.248 0.249" stroke-width="1"></path><path stroke="#191919" stroke-linecap="round" stroke-linejoin="round" d="M18.22 21.582a0.249 0.249 0 0 1 0.25 -0.25" stroke-width="1"></path><path stroke="#191919" stroke-linecap="round" stroke-linejoin="round" d="M18.47 21.83a0.249 0.249 0 0 1 -0.25 -0.248" stroke-width="1"></path><path stroke="#191919" stroke-linecap="round" stroke-linejoin="round" d="M18.718 21.582a0.25 0.25 0 0 1 -0.249 0.249" stroke-width="1"></path><path stroke="#191919" stroke-linecap="round" stroke-linejoin="round" d="M16.478 22.826a0.25 0.25 0 0 1 0.25 0.25" stroke-width="1"></path><path stroke="#191919" stroke-linecap="round" stroke-linejoin="round" d="M16.23 23.075a0.25 0.25 0 0 1 0.248 -0.249" stroke-width="1"></path><path stroke="#191919" stroke-linecap="round" stroke-linejoin="round" d="M16.478 23.324a0.249 0.249 0 0 1 -0.249 -0.249" stroke-width="1"></path><path stroke="#191919" stroke-linecap="round" stroke-linejoin="round" d="M16.727 23.075a0.249 0.249 0 0 1 -0.249 0.249" stroke-width="1"></path><path stroke="#191919" stroke-linecap="round" stroke-linejoin="round" d="M20.46 19.84a0.249 0.249 0 0 1 0.25 0.248" stroke-width="1"></path><path stroke="#191919" stroke-linecap="round" stroke-linejoin="round" d="M20.211 20.088a0.248 0.248 0 0 1 0.25 -0.248" stroke-width="1"></path><path stroke="#191919" stroke-linecap="round" stroke-linejoin="round" d="M20.46 20.337a0.249 0.249 0 0 1 -0.249 -0.248" stroke-width="1"></path><path stroke="#191919" stroke-linecap="round" stroke-linejoin="round" d="M20.71 20.089a0.248 0.248 0 0 1 -0.25 0.248" stroke-width="1"></path><path stroke="#191919" stroke-linecap="round" stroke-linejoin="round" d="M20.46 22.826a0.25 0.25 0 0 1 0.25 0.25" stroke-width="1"></path><path stroke="#191919" stroke-linecap="round" stroke-linejoin="round" d="M20.211 23.075a0.249 0.249 0 0 1 0.25 -0.249" stroke-width="1"></path><path stroke="#191919" stroke-linecap="round" stroke-linejoin="round" d="M20.46 23.324a0.249 0.249 0 0 1 -0.249 -0.249" stroke-width="1"></path><path stroke="#191919" stroke-linecap="round" stroke-linejoin="round" d="M20.71 23.075a0.249 0.249 0 0 1 -0.25 0.249" stroke-width="1"></path></svg>