<svg xmlns="http://www.w3.org/2000/svg" fill="none" viewBox="0 0 24 24" height="24" width="24" id="Weather-Thunder--Streamline-Ultimate.svg"><desc>Weather Thunder Streamline Icon: https://streamlinehq.com</desc><path fill="#fff9bf" d="M7.5 11.5a4 4 0 1 0 0 -8 4 4 0 0 0 0 8Z" stroke-width="1"></path><path fill="#ffef5e" d="M4.337 9.923a3.986 3.986 0 1 0 5.715 -5.479 5.5 5.5 0 0 0 -3.3 4.566c-0.872 0.084 -1.705 0.4 -2.415 0.913Z" stroke-width="1"></path><path stroke="#191919" stroke-linecap="round" stroke-linejoin="round" d="M2.224 2.223 3 3" stroke-width="1"></path><path stroke="#191919" stroke-linecap="round" stroke-linejoin="round" d="M12.776 2.223 12 3" stroke-width="1"></path><path stroke="#191919" stroke-linecap="round" stroke-linejoin="round" d="M4.174 9.723A4 4 0 0 1 10.032 4.4" stroke-width="1"></path><path stroke="#191919" stroke-linecap="round" stroke-linejoin="round" d="M0.5 6.5h1" stroke-width="1"></path><path stroke="#191919" stroke-linecap="round" stroke-linejoin="round" d="M7.5 0.5v1" stroke-width="1"></path><path fill="#e3e3e3" d="M21.751 13.194a3 3 0 0 0 -3.123 -4.169 5.5 5.5 0 0 0 -10.6 1.5A5.015 5.015 0 0 0 8.5 20.529h11a4.02 4.02 0 0 0 2.251 -7.335Z" stroke-width="1"></path><path fill="#b2b2b2" d="M19.5 17.237h-11a4.991 4.991 0 0 1 -4.7 -3.379 4.979 4.979 0 0 0 4.7 6.671h11a4 4 0 0 0 3.64 -5.662 4 4 0 0 1 -3.64 2.37Z" stroke-width="1"></path><path stroke="#191919" stroke-linecap="round" stroke-linejoin="round" d="M22.309 19.348a3.998 3.998 0 0 0 -0.558 -6.154 3 3 0 0 0 -3.123 -4.169 5.5 5.5 0 0 0 -10.6 1.5 5 5 0 0 0 -2.291 9.14" stroke-width="1"></path><path stroke="#191919" stroke-linecap="round" stroke-linejoin="round" d="M10 18.5 7.5 21H10l-2.5 2.5" stroke-width="1"></path><path stroke="#191919" stroke-linecap="round" stroke-linejoin="round" d="M15 18.5 12.5 21H15l-2.5 2.5" stroke-width="1"></path><path stroke="#191919" stroke-linecap="round" stroke-linejoin="round" d="M20 18.5 17.5 21H20l-2.5 2.5" stroke-width="1"></path></svg>